<?xml version="1.0" standalone="no"?>
<!DOCTYPE svg PUBLIC "-//W3C//DTD SVG 20010904//EN"
 "http://www.w3.org/TR/2001/REC-SVG-20010904/DTD/svg10.dtd">
<svg version="1.0" xmlns="http://www.w3.org/2000/svg"
 width="1303.000000pt" height="438.000000pt" viewBox="0 0 1303.000000 438.000000"
 preserveAspectRatio="xMidYMid meet">

<g transform="translate(0.000000,438.000000) scale(0.100000,-0.100000)"
fill="#000000" stroke="none">
<path d="M410 2965 l0 -175 305 0 305 0 0 -815 0 -815 205 0 205 0 0 815 0
815 303 2 302 3 0 170 0 170 -812 3 -813 2 0 -175z"/>
<path d="M8280 2150 l0 -990 200 0 200 0 0 990 0 990 -200 0 -200 0 0 -990z"/>
<path d="M2953 2642 c-106 -38 -183 -113 -220 -214 -10 -27 -21 -48 -25 -48
-5 0 -8 59 -8 130 l0 130 -200 0 -200 0 0 -740 0 -740 205 0 205 0 0 443 c0
364 3 452 15 494 36 122 150 205 282 205 39 0 85 -7 105 -15 33 -14 37 -14 43
1 16 42 115 315 115 319 0 2 -21 13 -47 25 -68 30 -201 35 -270 10z"/>
<path d="M3955 2650 c-248 -39 -432 -182 -489 -377 -15 -53 -15 -53 7 -53 12
0 96 -7 186 -15 91 -8 166 -13 167 -12 1 1 9 16 18 34 44 87 132 133 255 133
114 -1 190 -51 211 -141 14 -56 7 -100 -20 -124 -23 -21 -100 -40 -220 -55
-351 -42 -483 -86 -577 -194 -108 -122 -125 -338 -40 -499 76 -145 262 -228
482 -214 95 6 184 32 238 68 48 33 106 90 128 127 12 17 25 32 30 32 5 0 9
-45 9 -100 l0 -100 195 0 195 0 0 503 c0 276 -5 532 -10 569 -17 115 -45 175
-119 249 -76 75 -155 118 -276 149 -93 24 -279 34 -370 20z m365 -908 c0 -125
-18 -180 -77 -240 -55 -54 -118 -83 -199 -90 -161 -12 -263 66 -251 191 9 102
81 147 286 183 76 13 157 30 182 38 24 8 47 14 52 15 4 1 7 -43 7 -97z"/>
<path d="M7175 2650 c-222 -35 -405 -168 -500 -363 -59 -123 -85 -241 -85
-397 0 -288 103 -510 294 -638 140 -94 276 -127 480 -119 152 6 219 22 336 79
138 67 258 208 284 334 l7 31 -63 6 c-35 4 -119 9 -188 12 l-125 6 -27 -45
c-33 -56 -85 -91 -168 -112 -130 -33 -256 1 -339 92 -52 57 -77 115 -88 201
l-6 53 507 0 506 0 0 113 c0 201 -36 341 -120 470 -85 129 -203 213 -360 257
-87 24 -255 34 -345 20z m271 -325 c90 -40 154 -126 169 -228 l7 -47 -317 0
-317 0 7 38 c17 95 87 192 170 234 79 41 193 42 281 3z"/>
<path d="M4950 2588 c11 -29 128 -361 259 -738 l239 -685 234 -3 233 -2 255
730 c140 402 257 735 258 740 2 6 -80 10 -211 10 l-215 0 -16 -47 c-8 -27 -76
-262 -152 -523 -75 -261 -140 -479 -146 -485 -6 -6 -11 -6 -16 2 -4 7 -74 246
-157 532 l-150 521 -217 0 -217 0 19 -52z"/>
</g>
</svg>
